# xmcd CD database file
#
# Track frame offsets:
#	150
#	20256
#	57730
#	84159
#	114464
#	137285
#	159545
#	190176
#	209043
#	231376
#	259208
#
# Disc length: 3938 seconds
#
# Revision: 0
# Processed by: cddbd v1.5.2PL0 Copyright (c) Steve Scherf et al.
# Submitted via: CDex 1.51
#
DISCID=960f600b
DTITLE=Matthew Parish - Circles
DYEAR=2000
DGENRE=Jazz
TTITLE0=Bee-Doe-Lot
TTITLE1=Circles
TTITLE2=Twain
TTITLE3=I know What You Did
TTITLE4=Seven Steps To Heaven
TTITLE5=Go Tell It On The Mountain
TTITLE6=This One's for All
TTITLE7=The Trouble with Me
TTITLE8=Sophia
TTITLE9=Ben
TTITLE10=Fliritbird
EXTD=YEAR: 2000
EXTT0=
EXTT1=
EXTT2=
EXTT3=
EXTT4=
EXTT5=
EXTT6=
EXTT7=
EXTT8=
EXTT9=
EXTT10=
PLAYORDER=
